# xmcd
#
# Track frame offsets:
#	150
#	11291
#	23108
#	33121
#	46942
#	58057
#	71808
#	82011
#	93807
#	104980
#	117678
#	129105
#	141329
#	154370
#
# Disc length: 2211 seconds
#
# Revision: 0
# Processed by: cddbd v1.5.2PL0 Copyright (c) Steve Scherf et al.
# Submitted via: dBpowerAMP V4.0
#
DISCID=bf08a10e
DTITLE=Roland 'Soldat' Lebrun - Les Années Starr 1942-1953 CD3
DYEAR=2004
DGENRE=
TTITLE0=Pour te garder longtemps
TTITLE1=Près de toi
TTITLE2=Une Prière exaucée
TTITLE3=Le Printemps de la vie
TTITLE4=Regrets d'absence
TTITLE5=Réponse à la prière d'une mère
TTITLE6=Retour au petit foyer
TTITLE7=Reviens, petit papa
TTITLE8=Reviens, reviens
TTITLE9=Te souviendras-tu de moi?
TTITLE10=Ton sourire
TTITLE11=Un Baiser de mon fils
TTITLE12=Un Baiser, puis bonsoir
TTITLE13=Un Jour, c'était ta fête
EXTD=
EXTT0=
EXTT1=
EXTT2=
EXTT3=
EXTT4=
EXTT5=
EXTT6=
EXTT7=
EXTT8=
EXTT9=
EXTT10=
EXTT11=
EXTT12=
EXTT13=
PLAYORDER=
